{
  "accessors": [
    {
      "bufferView": 2,
      "componentType": 5126,
      "count": 12915,
      "max": [
        6.1700005531311035,
        5.320000648498535,
        1.0598047971725464
      ],
      "min": [
        -6.1700005531311035,
        -8.940696716308594e-08,
        -0.9202396273612976
      ],
      "type": "VEC3"
    },
    {
      "bufferView": 2,
      "byteOffset": 154980,
      "componentType": 5126,
      "count": 12915,
      "max": [
        1.0,
        1.0,
        1.0
      ],
      "min": [
        -1.0,
        -1.0,
        -1.0
      ],
      "type": "VEC3"
    },
    {
      "bufferView": 3,
      "componentType": 5126,
      "count": 12915,
      "max": [
        1.0,
        1.0,
        1.0,
        1.0
      ],
      "min": [
        -1.0,
        -1.0,
        -1.0,
        -1.0
      ],
      "type": "VEC4"
    },
    {
      "bufferView": 1,
      "componentType": 5126,
      "count": 12915,
      "max": [
        0.9963109493255615,
        0.9954265356063843
      ],
      "min": [
        0.0036891698837280273,
        0.004601418972015381
      ],
      "type": "VEC2"
    },
    {
      "bufferView": 0,
      "componentType": 5125,
      "count": 61476,
      "type": "SCALAR"
    }
  ],
  "asset": {
    "extras": {
      "author": "brian-aa (https://sketchfab.com/brian-aa)",
      "license": "CC-BY-4.0 (http://creativecommons.org/licenses/by/4.0/)",
      "source": "https://sketchfab.com/3d-models/classiccontroller-f57359f8e7594b009303a9f6c0a7e82b",
      "title": "ClassicController"
    },
    "generator": "Sketchfab-13.7.0",
    "version": "2.0"
  },
  "bufferViews": [
    {
      "buffer": 0,
      "byteLength": 245904,
      "name": "floatBufferViews",
      "target": 34963
    },
    {
      "buffer": 0,
      "byteLength": 103320,
      "byteOffset": 245904,
      "byteStride": 8,
      "name": "floatBufferViews",
      "target": 34962
    },
    {
      "buffer": 0,
      "byteLength": 309960,
      "byteOffset": 349224,
      "byteStride": 12,
      "name": "floatBufferViews",
      "target": 34962
    },
    {
      "buffer": 0,
      "byteLength": 206640,
      "byteOffset": 659184,
      "byteStride": 16,
      "name": "floatBufferViews",
      "target": 34962
    }
  ],
  "buffers": [
    {
      "byteLength": 865824,
      "uri": "scene.bin"
    }
  ],
  "images": [
    {
      "uri": "textures/controllerClassic_MAT_baseColor.png"
    },
    {
      "uri": "textures/controllerClassic_MAT_metallicRoughness.png"
    },
    {
      "uri": "textures/controllerClassic_MAT_normal.png"
    }
  ],
  "materials": [
    {
      "doubleSided": true,
      "name": "controllerClassic_MAT",
      "normalTexture": {
        "index": 2
      },
      "pbrMetallicRoughness": {
        "baseColorTexture": {
          "index": 0
        },
        "metallicRoughnessTexture": {
          "index": 1
        }
      }
    }
  ],
  "meshes": [
    {
      "name": "controllerNintendoClassic_GEO_controllerClassic_MAT_0",
      "primitives": [
        {
          "attributes": {
            "NORMAL": 1,
            "POSITION": 0,
            "TANGENT": 2,
            "TEXCOORD_0": 3
          },
          "indices": 4,
          "material": 0,
          "mode": 4
        }
      ]
    }
  ],
  "nodes": [
    {
      "children": [
        1
      ],
      "matrix": [
        1.0,
        0.0,
        0.0,
        0.0,
        0.0,
        2.220446049250313e-16,
        -1.0,
        0.0,
        0.0,
        1.0,
        2.220446049250313e-16,
        0.0,
        0.0,
        0.0,
        0.0,
        1.0
      ],
      "name": "Sketchfab_model"
    },
    {
      "children": [
        2
      ],
      "matrix": [
        0.0010000000474974513,
        0.0,
        0.0,
        0.0,
        0.0,
        0.0,
        0.0010000000474974513,
        0.0,
        0.0,
        -0.0010000000474974513,
        0.0,
        0.0,
        0.0,
        0.0,
        0.0,
        1.0
      ],
      "name": "3e6af91be75e4b7eab6d4d54573172f9.fbx"
    },
    {
      "children": [
        3
      ],
      "name": "RootNode"
    },
    {
      "children": [
        4
      ],
      "matrix": [
        10.0,
        0.0,
        0.0,
        0.0,
        0.0,
        10.0,
        0.0,
        0.0,
        0.0,
        0.0,
        10.0,
        0.0,
        0.0,
        0.0,
        0.0,
        1.0
      ],
      "name": "nintendoClassicContoller_GRP"
    },
    {
      "children": [
        5
      ],
      "name": "mesh_GRP"
    },
    {
      "children": [
        6
      ],
      "name": "controllerNintendoClassic_GEO"
    },
    {
      "mesh": 0,
      "name": "controllerNintendoClassic_GEO_controllerClassic_MAT_0"
    }
  ],
  "samplers": [
    {
      "magFilter": 9729,
      "minFilter": 9987,
      "wrapS": 10497,
      "wrapT": 10497
    }
  ],
  "scene": 0,
  "scenes": [
    {
      "name": "Sketchfab_Scene",
      "nodes": [
        0
      ]
    }
  ],
  "textures": [
    {
      "sampler": 0,
      "source": 0
    },
    {
      "sampler": 0,
      "source": 1
    },
    {
      "sampler": 0,
      "source": 2
    }
  ]
}
